<mxfile host="drawio-plugin" modified="2022-12-04T15:45:15.709Z" agent="5.0 (Windows NT 6.2; Win64; x64) AppleWebKit/537.36 (KHTML, like Gecko) Chrome/104.0.5112.102 Safari/537.36" etag="2B0DbmToXm5PErGKstth" version="20.5.3" type="embed" pages="3"><diagram id="WJWYRF3JW887FxR_2pt_" name="Components"><mxGraphModel dx="1568" dy="1711" grid="1" gridSize="10" guides="1" tooltips="1" connect="1" arrows="1" fold="1" page="1" pageScale="1" pageWidth="850" pageHeight="1100" math="0" shadow="0"><root><mxCell id="0"/><mxCell id="1" parent="0"/><mxCell id="JROARpgO5LGKM70FcoCZ-3" value="" style="rounded=1;whiteSpace=wrap;html=1;" parent="1" vertex="1"><mxGeometry x="-300" y="80" width="850" height="470" as="geometry"/></mxCell><mxCell id="NP-N_gkXr4D6js98mMwR-3" value="Port 27017" style="edgeStyle=orthogonalEdgeStyle;rounded=0;orthogonalLoop=1;jettySize=auto;html=1;exitX=0.75;exitY=1;exitDx=0;exitDy=0;entryX=0.5;entryY=0;entryDx=0;entryDy=0;" parent="1" source="NP-N_gkXr4D6js98mMwR-1" target="NP-N_gkXr4D6js98mMwR-2" edge="1"><mxGeometry relative="1" as="geometry"/></mxCell><mxCell id="NP-N_gkXr4D6js98mMwR-6" value="Port 9092" style="edgeStyle=orthogonalEdgeStyle;rounded=0;orthogonalLoop=1;jettySize=auto;html=1;exitX=0.25;exitY=1;exitDx=0;exitDy=0;entryX=0.75;entryY=1;entryDx=0;entryDy=0;" parent="1" source="NP-N_gkXr4D6js98mMwR-1" target="NP-N_gkXr4D6js98mMwR-5" edge="1"><mxGeometry relative="1" as="geometry"/></mxCell><mxCell id="NP-N_gkXr4D6js98mMwR-1" value="Person / Contact Service" style="rounded=0;whiteSpace=wrap;html=1;" parent="1" vertex="1"><mxGeometry x="290" y="120" width="200" height="160" as="geometry"/></mxCell><mxCell id="NP-N_gkXr4D6js98mMwR-2" value="Mongo DB&amp;nbsp;" style="shape=cylinder;whiteSpace=wrap;html=1;boundedLbl=1;backgroundOutline=1;" parent="1" vertex="1"><mxGeometry x="380" y="350" width="120" height="110" as="geometry"/></mxCell><mxCell id="9PFEDNaI4BMceLaWt4TZ-15" style="edgeStyle=orthogonalEdgeStyle;rounded=0;orthogonalLoop=1;jettySize=auto;html=1;exitX=0.25;exitY=1;exitDx=0;exitDy=0;entryX=0.5;entryY=1;entryDx=0;entryDy=0;" parent="1" source="NP-N_gkXr4D6js98mMwR-5" target="9PFEDNaI4BMceLaWt4TZ-12" edge="1"><mxGeometry relative="1" as="geometry"/></mxCell><mxCell id="9PFEDNaI4BMceLaWt4TZ-16" value="Port 9092" style="edgeLabel;html=1;align=center;verticalAlign=middle;resizable=0;points=[];" parent="9PFEDNaI4BMceLaWt4TZ-15" vertex="1" connectable="0"><mxGeometry x="0.0361" relative="1" as="geometry"><mxPoint as="offset"/></mxGeometry></mxCell><mxCell id="NP-N_gkXr4D6js98mMwR-5" value="Kafka / Zookeeper" style="rounded=0;whiteSpace=wrap;html=1;" parent="1" vertex="1"><mxGeometry x="20" y="340" width="240" height="110" as="geometry"/></mxCell><mxCell id="NP-N_gkXr4D6js98mMwR-8" value="" style="edgeStyle=orthogonalEdgeStyle;rounded=0;orthogonalLoop=1;jettySize=auto;html=1;exitX=0.9;exitY=0.5;exitDx=0;exitDy=0;exitPerimeter=0;" parent="1" source="9PFEDNaI4BMceLaWt4TZ-21" target="NP-N_gkXr4D6js98mMwR-1" edge="1"><mxGeometry relative="1" as="geometry"><mxPoint x="250" y="-90" as="sourcePoint"/></mxGeometry></mxCell><mxCell id="9PFEDNaI4BMceLaWt4TZ-22" value="Port 8080" style="edgeLabel;html=1;align=center;verticalAlign=middle;resizable=0;points=[];" parent="NP-N_gkXr4D6js98mMwR-8" vertex="1" connectable="0"><mxGeometry x="0.5121" relative="1" as="geometry"><mxPoint as="offset"/></mxGeometry></mxCell><mxCell id="9PFEDNaI4BMceLaWt4TZ-17" style="edgeStyle=orthogonalEdgeStyle;rounded=0;orthogonalLoop=1;jettySize=auto;html=1;entryX=0.5;entryY=0;entryDx=0;entryDy=0;exitX=0.1;exitY=0.5;exitDx=0;exitDy=0;exitPerimeter=0;" parent="1" source="9PFEDNaI4BMceLaWt4TZ-21" target="9PFEDNaI4BMceLaWt4TZ-11" edge="1"><mxGeometry relative="1" as="geometry"><mxPoint x="-80" y="-90" as="sourcePoint"/></mxGeometry></mxCell><mxCell id="9PFEDNaI4BMceLaWt4TZ-23" value="Port 8081" style="edgeLabel;html=1;align=center;verticalAlign=middle;resizable=0;points=[];" parent="9PFEDNaI4BMceLaWt4TZ-17" vertex="1" connectable="0"><mxGeometry x="0.5919" relative="1" as="geometry"><mxPoint as="offset"/></mxGeometry></mxCell><mxCell id="NP-N_gkXr4D6js98mMwR-9" value="Cloud Event" style="rounded=0;whiteSpace=wrap;html=1;" parent="1" vertex="1"><mxGeometry x="290" y="250" width="80" height="30" as="geometry"/></mxCell><mxCell id="9PFEDNaI4BMceLaWt4TZ-14" value="Port 27018" style="edgeStyle=orthogonalEdgeStyle;rounded=0;orthogonalLoop=1;jettySize=auto;html=1;exitX=0.25;exitY=1;exitDx=0;exitDy=0;entryX=0.5;entryY=0;entryDx=0;entryDy=0;" parent="1" source="9PFEDNaI4BMceLaWt4TZ-11" target="9PFEDNaI4BMceLaWt4TZ-13" edge="1"><mxGeometry relative="1" as="geometry"/></mxCell><mxCell id="9PFEDNaI4BMceLaWt4TZ-11" value="Order Service" style="rounded=0;whiteSpace=wrap;html=1;" parent="1" vertex="1"><mxGeometry x="-240" y="120" width="200" height="160" as="geometry"/></mxCell><mxCell id="9PFEDNaI4BMceLaWt4TZ-12" value="Cloud Event" style="rounded=0;whiteSpace=wrap;html=1;" parent="1" vertex="1"><mxGeometry x="-120" y="240" width="80" height="30" as="geometry"/></mxCell><mxCell id="9PFEDNaI4BMceLaWt4TZ-13" value="Mongo DB&amp;nbsp;" style="shape=cylinder;whiteSpace=wrap;html=1;boundedLbl=1;backgroundOutline=1;" parent="1" vertex="1"><mxGeometry x="-250" y="350" width="120" height="110" as="geometry"/></mxCell><mxCell id="9PFEDNaI4BMceLaWt4TZ-25" style="edgeStyle=orthogonalEdgeStyle;rounded=0;orthogonalLoop=1;jettySize=auto;html=1;exitX=1;exitY=0.75;exitDx=0;exitDy=0;entryX=1;entryY=0.5;entryDx=0;entryDy=0;" parent="1" source="9PFEDNaI4BMceLaWt4TZ-21" target="NP-N_gkXr4D6js98mMwR-5" edge="1"><mxGeometry relative="1" as="geometry"/></mxCell><mxCell id="9PFEDNaI4BMceLaWt4TZ-26" value="&lt;span style=&quot;font-family: &amp;#34;helvetica&amp;#34;&quot;&gt;Port 9093 (Listener for out of Docker)&lt;/span&gt;" style="edgeLabel;html=1;align=center;verticalAlign=middle;resizable=0;points=[];" parent="9PFEDNaI4BMceLaWt4TZ-25" vertex="1" connectable="0"><mxGeometry x="-0.5814" relative="1" as="geometry"><mxPoint y="1" as="offset"/></mxGeometry></mxCell><mxCell id="9PFEDNaI4BMceLaWt4TZ-35" value="SSH" style="edgeStyle=orthogonalEdgeStyle;rounded=0;orthogonalLoop=1;jettySize=auto;html=1;exitX=0.75;exitY=1;exitDx=0;exitDy=0;entryX=0.5;entryY=0;entryDx=0;entryDy=0;" parent="1" source="9PFEDNaI4BMceLaWt4TZ-21" target="9PFEDNaI4BMceLaWt4TZ-27" edge="1"><mxGeometry relative="1" as="geometry"><Array as="points"><mxPoint x="163" y="60"/><mxPoint x="210" y="60"/></Array></mxGeometry></mxCell><mxCell id="9PFEDNaI4BMceLaWt4TZ-36" value="Port 4200" style="edgeStyle=orthogonalEdgeStyle;rounded=0;orthogonalLoop=1;jettySize=auto;html=1;exitX=0.25;exitY=1;exitDx=0;exitDy=0;entryX=0.5;entryY=0;entryDx=0;entryDy=0;" parent="1" source="9PFEDNaI4BMceLaWt4TZ-21" target="9PFEDNaI4BMceLaWt4TZ-28" edge="1"><mxGeometry relative="1" as="geometry"/></mxCell><mxCell id="9PFEDNaI4BMceLaWt4TZ-21" value="" style="shape=actor;whiteSpace=wrap;html=1;" parent="1" vertex="1"><mxGeometry x="95" y="-110" width="90" height="110" as="geometry"/></mxCell><mxCell id="9PFEDNaI4BMceLaWt4TZ-31" style="edgeStyle=orthogonalEdgeStyle;rounded=0;orthogonalLoop=1;jettySize=auto;html=1;exitX=0.75;exitY=0;exitDx=0;exitDy=0;entryX=0.25;entryY=0;entryDx=0;entryDy=0;" parent="1" source="9PFEDNaI4BMceLaWt4TZ-27" target="NP-N_gkXr4D6js98mMwR-1" edge="1"><mxGeometry relative="1" as="geometry"/></mxCell><mxCell id="9PFEDNaI4BMceLaWt4TZ-32" style="edgeStyle=orthogonalEdgeStyle;rounded=0;orthogonalLoop=1;jettySize=auto;html=1;exitX=0.25;exitY=0;exitDx=0;exitDy=0;entryX=0.75;entryY=0;entryDx=0;entryDy=0;" parent="1" source="9PFEDNaI4BMceLaWt4TZ-27" target="9PFEDNaI4BMceLaWt4TZ-11" edge="1"><mxGeometry relative="1" as="geometry"/></mxCell><mxCell id="9PFEDNaI4BMceLaWt4TZ-27" value="CLI" style="rounded=0;whiteSpace=wrap;html=1;" parent="1" vertex="1"><mxGeometry x="160" y="120" width="100" height="160" as="geometry"/></mxCell><mxCell id="9PFEDNaI4BMceLaWt4TZ-33" style="edgeStyle=orthogonalEdgeStyle;rounded=0;orthogonalLoop=1;jettySize=auto;html=1;exitX=0;exitY=0.5;exitDx=0;exitDy=0;entryX=1;entryY=0.5;entryDx=0;entryDy=0;" parent="1" source="9PFEDNaI4BMceLaWt4TZ-28" target="9PFEDNaI4BMceLaWt4TZ-11" edge="1"><mxGeometry relative="1" as="geometry"/></mxCell><mxCell id="9PFEDNaI4BMceLaWt4TZ-34" style="edgeStyle=orthogonalEdgeStyle;rounded=0;orthogonalLoop=1;jettySize=auto;html=1;exitX=0.75;exitY=0;exitDx=0;exitDy=0;entryX=0.375;entryY=-0.006;entryDx=0;entryDy=0;entryPerimeter=0;" parent="1" source="9PFEDNaI4BMceLaWt4TZ-28" target="NP-N_gkXr4D6js98mMwR-1" edge="1"><mxGeometry relative="1" as="geometry"><Array as="points"><mxPoint x="95" y="90"/><mxPoint x="365" y="90"/></Array></mxGeometry></mxCell><mxCell id="9PFEDNaI4BMceLaWt4TZ-28" value="Webapp" style="rounded=0;whiteSpace=wrap;html=1;" parent="1" vertex="1"><mxGeometry x="20" y="120" width="100" height="160" as="geometry"/></mxCell><mxCell id="9PFEDNaI4BMceLaWt4TZ-30" style="edgeStyle=orthogonalEdgeStyle;rounded=0;orthogonalLoop=1;jettySize=auto;html=1;exitX=0.5;exitY=1;exitDx=0;exitDy=0;entryX=0.75;entryY=0;entryDx=0;entryDy=0;" parent="1" source="9PFEDNaI4BMceLaWt4TZ-29" target="NP-N_gkXr4D6js98mMwR-5" edge="1"><mxGeometry relative="1" as="geometry"/></mxCell><mxCell id="9PFEDNaI4BMceLaWt4TZ-29" value="Cloud Event" style="rounded=0;whiteSpace=wrap;html=1;" parent="1" vertex="1"><mxGeometry x="180" y="250" width="80" height="30" as="geometry"/></mxCell></root></mxGraphModel></diagram><diagram id="ni5Q_OmJi7TH-G8R2E6y" name="Interactions-1"><mxGraphModel dx="610" dy="519" grid="1" gridSize="10" guides="1" tooltips="1" connect="1" arrows="1" fold="1" page="1" pageScale="1" pageWidth="850" pageHeight="1100" math="0" shadow="0"><root><mxCell id="v0MWP99bqKwrjfjMmXKz-0"/><mxCell id="v0MWP99bqKwrjfjMmXKz-1" parent="v0MWP99bqKwrjfjMmXKz-0"/><mxCell id="v0MWP99bqKwrjfjMmXKz-2" value="Order Service" style="shape=umlLifeline;perimeter=lifelinePerimeter;whiteSpace=wrap;html=1;container=1;collapsible=0;recursiveResize=0;outlineConnect=0;" parent="v0MWP99bqKwrjfjMmXKz-1" vertex="1"><mxGeometry x="180" y="60" width="100" height="310" as="geometry"/></mxCell><mxCell id="0eTvIA4_t9a6uZhp-ybZ-2" value="" style="html=1;points=[];perimeter=orthogonalPerimeter;" parent="v0MWP99bqKwrjfjMmXKz-2" vertex="1"><mxGeometry x="45" y="100" width="10" height="80" as="geometry"/></mxCell><mxCell id="0eTvIA4_t9a6uZhp-ybZ-3" value="POST Order" style="html=1;verticalAlign=bottom;endArrow=block;entryX=0;entryY=0;" parent="v0MWP99bqKwrjfjMmXKz-2" target="0eTvIA4_t9a6uZhp-ybZ-2" edge="1"><mxGeometry relative="1" as="geometry"><mxPoint x="-25" y="100" as="sourcePoint"/></mxGeometry></mxCell><mxCell id="0eTvIA4_t9a6uZhp-ybZ-4" value="Status" style="html=1;verticalAlign=bottom;endArrow=open;dashed=1;endSize=8;exitX=0;exitY=0.95;" parent="v0MWP99bqKwrjfjMmXKz-2" source="0eTvIA4_t9a6uZhp-ybZ-2" edge="1"><mxGeometry relative="1" as="geometry"><mxPoint x="-25" y="176" as="targetPoint"/></mxGeometry></mxCell><mxCell id="0eTvIA4_t9a6uZhp-ybZ-0" value="Contact Service" style="shape=umlLifeline;perimeter=lifelinePerimeter;whiteSpace=wrap;html=1;container=1;collapsible=0;recursiveResize=0;outlineConnect=0;" parent="v0MWP99bqKwrjfjMmXKz-1" vertex="1"><mxGeometry x="360" y="60" width="100" height="310" as="geometry"/></mxCell><mxCell id="0eTvIA4_t9a6uZhp-ybZ-8" value="" style="html=1;points=[];perimeter=orthogonalPerimeter;" parent="0eTvIA4_t9a6uZhp-ybZ-0" vertex="1"><mxGeometry x="45" y="115" width="10" height="55" as="geometry"/></mxCell><mxCell id="0eTvIA4_t9a6uZhp-ybZ-10" value="person" style="html=1;verticalAlign=bottom;endArrow=open;dashed=1;endSize=8;exitX=0;exitY=0.95;" parent="v0MWP99bqKwrjfjMmXKz-1" source="0eTvIA4_t9a6uZhp-ybZ-8" target="0eTvIA4_t9a6uZhp-ybZ-2" edge="1"><mxGeometry relative="1" as="geometry"><mxPoint x="335" y="251" as="targetPoint"/></mxGeometry></mxCell><mxCell id="0eTvIA4_t9a6uZhp-ybZ-9" value="/person/id" style="html=1;verticalAlign=bottom;endArrow=block;entryX=0;entryY=0;exitX=1.1;exitY=0.175;exitDx=0;exitDy=0;exitPerimeter=0;" parent="v0MWP99bqKwrjfjMmXKz-1" source="0eTvIA4_t9a6uZhp-ybZ-2" target="0eTvIA4_t9a6uZhp-ybZ-8" edge="1"><mxGeometry relative="1" as="geometry"><mxPoint x="335" y="175" as="sourcePoint"/></mxGeometry></mxCell></root></mxGraphModel></diagram><diagram name="Interactions-2" id="Ni7D81_kBAN0IBUMCYxW"><mxGraphModel dx="610" dy="519" grid="1" gridSize="10" guides="1" tooltips="1" connect="1" arrows="1" fold="1" page="1" pageScale="1" pageWidth="850" pageHeight="1100" math="0" shadow="0"><root><mxCell id="aC9V_nt8UgBJcs76mvsp-0"/><mxCell id="aC9V_nt8UgBJcs76mvsp-1" parent="aC9V_nt8UgBJcs76mvsp-0"/><mxCell id="aC9V_nt8UgBJcs76mvsp-2" value="Order Service" style="shape=umlLifeline;perimeter=lifelinePerimeter;whiteSpace=wrap;html=1;container=1;collapsible=0;recursiveResize=0;outlineConnect=0;" parent="aC9V_nt8UgBJcs76mvsp-1" vertex="1"><mxGeometry x="335" y="70" width="100" height="310" as="geometry"/></mxCell><mxCell id="aC9V_nt8UgBJcs76mvsp-3" value="" style="html=1;points=[];perimeter=orthogonalPerimeter;" parent="aC9V_nt8UgBJcs76mvsp-2" vertex="1"><mxGeometry x="45" y="90" width="10" height="130" as="geometry"/></mxCell><mxCell id="aC9V_nt8UgBJcs76mvsp-6" value="Contact Service" style="shape=umlLifeline;perimeter=lifelinePerimeter;whiteSpace=wrap;html=1;container=1;collapsible=0;recursiveResize=0;outlineConnect=0;" parent="aC9V_nt8UgBJcs76mvsp-1" vertex="1"><mxGeometry x="515" y="70" width="100" height="310" as="geometry"/></mxCell><mxCell id="aC9V_nt8UgBJcs76mvsp-7" value="" style="html=1;points=[];perimeter=orthogonalPerimeter;" parent="aC9V_nt8UgBJcs76mvsp-6" vertex="1"><mxGeometry x="45" y="155" width="10" height="55" as="geometry"/></mxCell><mxCell id="aC9V_nt8UgBJcs76mvsp-8" value="person" style="html=1;verticalAlign=bottom;endArrow=open;dashed=1;endSize=8;exitX=0;exitY=0.95;" parent="aC9V_nt8UgBJcs76mvsp-1" source="aC9V_nt8UgBJcs76mvsp-7" target="aC9V_nt8UgBJcs76mvsp-3" edge="1"><mxGeometry relative="1" as="geometry"><mxPoint x="490" y="301" as="targetPoint"/></mxGeometry></mxCell><mxCell id="aC9V_nt8UgBJcs76mvsp-9" value="/person/id" style="html=1;verticalAlign=bottom;endArrow=block;entryX=0;entryY=0;exitX=1;exitY=0.492;exitDx=0;exitDy=0;exitPerimeter=0;" parent="aC9V_nt8UgBJcs76mvsp-1" source="aC9V_nt8UgBJcs76mvsp-3" target="aC9V_nt8UgBJcs76mvsp-7" edge="1"><mxGeometry relative="1" as="geometry"><mxPoint x="400" y="225" as="sourcePoint"/></mxGeometry></mxCell><mxCell id="aC9V_nt8UgBJcs76mvsp-10" value="Kafka" style="shape=umlLifeline;perimeter=lifelinePerimeter;whiteSpace=wrap;html=1;container=1;collapsible=0;recursiveResize=0;outlineConnect=0;" parent="aC9V_nt8UgBJcs76mvsp-1" vertex="1"><mxGeometry x="170" y="70" width="100" height="300" as="geometry"/></mxCell><mxCell id="aC9V_nt8UgBJcs76mvsp-14" value="" style="html=1;points=[];perimeter=orthogonalPerimeter;" parent="aC9V_nt8UgBJcs76mvsp-10" vertex="1"><mxGeometry x="45" y="75" width="10" height="25" as="geometry"/></mxCell><mxCell id="aC9V_nt8UgBJcs76mvsp-15" value="dispatch person event" style="html=1;verticalAlign=bottom;endArrow=block;entryX=0;entryY=0.023;entryDx=0;entryDy=0;entryPerimeter=0;" parent="aC9V_nt8UgBJcs76mvsp-1" source="aC9V_nt8UgBJcs76mvsp-14" target="aC9V_nt8UgBJcs76mvsp-3" edge="1"><mxGeometry width="80" relative="1" as="geometry"><mxPoint y="200" as="sourcePoint"/><mxPoint x="80" y="200" as="targetPoint"/></mxGeometry></mxCell><mxCell id="aC9V_nt8UgBJcs76mvsp-17" value="check relevance" style="edgeStyle=orthogonalEdgeStyle;html=1;align=left;spacingLeft=2;endArrow=block;rounded=0;entryX=1;entryY=0;" parent="aC9V_nt8UgBJcs76mvsp-1" edge="1"><mxGeometry relative="1" as="geometry"><mxPoint x="390" y="170" as="sourcePoint"/><Array as="points"><mxPoint x="415" y="170"/></Array><mxPoint x="395" y="190" as="targetPoint"/></mxGeometry></mxCell></root></mxGraphModel></diagram></mxfile>